<svg xmlns="http://www.w3.org/2000/svg" viewBox="0 0 1180 610" width="100%" height="100%">
  <defs>
    <!-- Background Glows -->
    <radialGradient id="bgGlow1" cx="20%" cy="20%" r="50%">
      <stop offset="0%" stop-color="#2563EB" stop-opacity="0.15">
        <animate attributeName="stop-color" values="#2563EB;#06B6D4;#10B981;#2563EB" dur="6s" repeatCount="indefinite"/>
      </stop>
      <stop offset="100%" stop-color="#FFFFFF" stop-opacity="0"/>
    </radialGradient>
    <radialGradient id="bgGlow2" cx="80%" cy="80%" r="50%">
      <stop offset="0%" stop-color="#06B6D4" stop-opacity="0.1">
        <animate attributeName="stop-color" values="#06B6D4;#10B981;#2563EB;#06B6D4" dur="8s" repeatCount="indefinite"/>
      </stop>
      <stop offset="100%" stop-color="#FFFFFF" stop-opacity="0"/>
    </radialGradient>
    <!-- Dark glows -->
    <radialGradient id="bgGlow1Dark" cx="20%" cy="20%" r="50%">
      <stop offset="0%" stop-color="#7C3AED" stop-opacity="0.3">
        <animate attributeName="stop-color" values="#7C3AED;#22D3EE;#10B981;#7C3AED" dur="6s" repeatCount="indefinite"/>
      </stop>
      <stop offset="100%" stop-color="#030712" stop-opacity="0"/>
    </radialGradient>
    <radialGradient id="bgGlow2Dark" cx="80%" cy="80%" r="50%">
      <stop offset="0%" stop-color="#22D3EE" stop-opacity="0.2">
        <animate attributeName="stop-color" values="#22D3EE;#10B981;#7C3AED;#22D3EE" dur="8s" repeatCount="indefinite"/>
      </stop>
      <stop offset="100%" stop-color="#030712" stop-opacity="0"/>
    </radialGradient>

    <!-- Panel Glass -->
    <linearGradient id="panelGradLight" x1="0%" y1="0%" x2="0%" y2="100%">
      <stop offset="0%" stop-color="rgba(248, 250, 252, 0.85)"/>
      <stop offset="100%" stop-color="rgba(255, 255, 255, 0.7)"/>
    </linearGradient>
    <linearGradient id="panelGradDark" x1="0%" y1="0%" x2="0%" y2="100%">
      <stop offset="0%" stop-color="rgba(15, 23, 42, 0.7)"/>
      <stop offset="100%" stop-color="rgba(15, 23, 42, 0.4)"/>
    </linearGradient>

    <!-- Accent Gradient for Text & Pills -->
    <linearGradient id="accentGrad" x1="0%" y1="0%" x2="100%" y2="100%">
      <stop offset="0%" stop-color="#2563EB">
        <animate attributeName="stop-color" values="#2563EB;#06B6D4;#10B981;#2563EB" dur="4s" repeatCount="indefinite"/>
      </stop>
      <stop offset="50%" stop-color="#06B6D4">
        <animate attributeName="stop-color" values="#06B6D4;#10B981;#2563EB;#06B6D4" dur="4s" repeatCount="indefinite"/>
      </stop>
      <stop offset="100%" stop-color="#10B981">
        <animate attributeName="stop-color" values="#10B981;#2563EB;#06B6D4;#10B981" dur="4s" repeatCount="indefinite"/>
      </stop>
    </linearGradient>
    <!-- Dark accent -->
    <linearGradient id="accentGradDark" x1="0%" y1="0%" x2="100%" y2="100%">
      <stop offset="0%" stop-color="#7C3AED">
        <animate attributeName="stop-color" values="#7C3AED;#22D3EE;#10B981;#7C3AED" dur="4s" repeatCount="indefinite"/>
      </stop>
      <stop offset="50%" stop-color="#22D3EE">
        <animate attributeName="stop-color" values="#22D3EE;#10B981;#7C3AED;#22D3EE" dur="4s" repeatCount="indefinite"/>
      </stop>
      <stop offset="100%" stop-color="#10B981">
        <animate attributeName="stop-color" values="#10B981;#7C3AED;#22D3EE;#10B981" dur="4s" repeatCount="indefinite"/>
      </stop>
    </linearGradient>

    <!-- Photo ring gradient (rotating) -->
    <linearGradient id="ringGrad" x1="0%" y1="0%" x2="100%" y2="100%">
      <stop offset="0%" stop-color="#2563EB"/>
      <stop offset="50%" stop-color="#06B6D4"/>
      <stop offset="100%" stop-color="#10B981"/>
    </linearGradient>
    <linearGradient id="ringGradDark" x1="0%" y1="0%" x2="100%" y2="100%">
      <stop offset="0%" stop-color="#7C3AED"/>
      <stop offset="50%" stop-color="#22D3EE"/>
      <stop offset="100%" stop-color="#10B981"/>
    </linearGradient>

    <!-- Shimmer Border -->
    <linearGradient id="shimmerGrad" x1="0%" y1="0%" x2="100%" y2="100%">
      <stop offset="0%" stop-color="rgba(15,23,42,0.05)"/>
      <stop offset="50%" stop-color="#06B6D4">
        <animate attributeName="stop-color" values="#06B6D4;#2563EB;#06B6D4" dur="3s" repeatCount="indefinite"/>
      </stop>
      <stop offset="100%" stop-color="rgba(15,23,42,0.05)"/>
    </linearGradient>
    <linearGradient id="shimmerGradDark" x1="0%" y1="0%" x2="100%" y2="100%">
      <stop offset="0%" stop-color="rgba(255,255,255,0.1)"/>
      <stop offset="50%" stop-color="#22D3EE">
        <animate attributeName="stop-color" values="#22D3EE;#7C3AED;#22D3EE" dur="3s" repeatCount="indefinite"/>
      </stop>
      <stop offset="100%" stop-color="rgba(255,255,255,0.1)"/>
    </linearGradient>

    <!-- Filters -->
    <filter id="glow" x="-20%" y="-20%" width="140%" height="140%">
      <feGaussianBlur stdDeviation="4" result="blur"/>
      <feComposite in="SourceGraphic" in2="blur" operator="over"/>
    </filter>
    <filter id="softGlow" x="-50%" y="-50%" width="200%" height="200%">
      <feGaussianBlur stdDeviation="8" result="blur"/>
      <feComposite in="SourceGraphic" in2="blur" operator="over"/>
    </filter>
    <filter id="noise">
      <feTurbulence type="fractalNoise" baseFrequency="0.7" numOctaves="3" stitchTiles="stitch"/>
      <feColorMatrix type="matrix" values="1 0 0 0 0, 0 1 0 0 0, 0 0 1 0 0, 0 0 0 0.03 0"/>
    </filter>
    <filter id="noiseDark">
      <feTurbulence type="fractalNoise" baseFrequency="0.7" numOctaves="3" stitchTiles="stitch"/>
      <feColorMatrix type="matrix" values="1 0 0 0 0, 0 1 0 0 0, 0 0 1 0 0, 0 0 0 0.04 0"/>
    </filter>

    <!-- Photo clip -->
    <clipPath id="profileClip">
      <circle cx="235" cy="160" r="90"/>
    </clipPath>

    <style>
      :root {
        --bg: #FFFFFF;
        --panel-bg: url(#panelGradLight);
        --shimmer: url(#shimmerGrad);
        --accent: url(#accentGrad);
        --ring: url(#ringGrad);
        --noise: url(#noise);
        --text: #0F172A;
        --text-muted: #475569;
        --pill-bg: rgba(15,23,42,0.04);
        --pill-stroke: rgba(15,23,42,0.1);
        --social-fill: #475569;
        --cursor-fill: #2563EB;
      }
      @media (prefers-color-scheme: dark) {
        :root {
          --bg: #030712;
          --panel-bg: url(#panelGradDark);
          --shimmer: url(#shimmerGradDark);
          --accent: url(#accentGradDark);
          --ring: url(#ringGradDark);
          --noise: url(#noiseDark);
          --text: #F8FAFC;
          --text-muted: #94A3B8;
          --pill-bg: rgba(255,255,255,0.05);
          --pill-stroke: rgba(255,255,255,0.1);
          --social-fill: #94A3B8;
          --cursor-fill: #22D3EE;
        }
      }
      .bg { fill: var(--bg); }
      .panel-bg { fill: var(--panel-bg); }
      .panel-stroke { stroke: var(--shimmer); }
      .text-main { fill: var(--text); }
      .text-muted { fill: var(--text-muted); }
      .accent-text { fill: var(--accent); }
      .accent-stroke { stroke: var(--accent); }
      .social-icon { transition: all 0.3s ease; cursor: pointer; }
      .social-icon:hover { filter: drop-shadow(0 0 10px var(--cursor-fill)); transform: translateY(-3px); }
      .pill-group { transition: all 0.3s ease; cursor: pointer; }
      .pill-group:hover .pill-bg { fill: var(--cursor-fill); opacity: 0.15; stroke: var(--cursor-fill); filter: drop-shadow(0 0 12px var(--cursor-fill)); transform: scale(1.05); }
      .pill-group:hover .pill-text { fill: var(--text); }
      .cursor { fill: var(--cursor-fill); }
    </style>
  </defs>

  <!-- Background -->
  <rect width="1180" height="610" rx="16" class="bg"/>
  <rect width="1180" height="610" fill="url(#bgGlow1)" rx="16"/>
  <rect width="1180" height="610" fill="url(#bgGlow2)" rx="16"/>
  <rect width="1180" height="610" filter="var(--noise)" pointer-events="none" rx="16"/>

  <!-- Floating Particles -->
  <g>
    <circle cx="150" cy="150" r="2" fill="#2563EB" opacity="0.4">
      <animate attributeName="cy" values="150; 100; 150" dur="5s" repeatCount="indefinite"/>
      <animate attributeName="opacity" values="0.4; 0.1; 0.4" dur="5s" repeatCount="indefinite"/>
    </circle>
    <circle cx="350" cy="400" r="1.5" fill="#06B6D4" opacity="0.5">
      <animate attributeName="cy" values="400; 350; 400" dur="7s" repeatCount="indefinite"/>
      <animate attributeName="opacity" values="0.5; 0.15; 0.5" dur="7s" repeatCount="indefinite"/>
    </circle>
    <circle cx="850" cy="200" r="2.5" fill="#10B981" opacity="0.3">
      <animate attributeName="cx" values="850; 880; 850" dur="6s" repeatCount="indefinite"/>
      <animate attributeName="opacity" values="0.3; 0.05; 0.3" dur="6s" repeatCount="indefinite"/>
    </circle>
    <circle cx="1050" cy="500" r="1.5" fill="#2563EB" opacity="0.4">
      <animate attributeName="cy" values="500; 450; 500" dur="8s" repeatCount="indefinite"/>
    </circle>
    <circle cx="600" cy="550" r="2" fill="#06B6D4" opacity="0.3">
      <animate attributeName="cy" values="550; 500; 550" dur="4s" repeatCount="indefinite"/>
    </circle>
  </g>

  <!-- Global Scanline -->
  <rect x="0" y="0" width="1180" height="2" fill="var(--shimmer)" opacity="0.2">
    <animate attributeName="y" from="0" to="610" dur="4s" repeatCount="indefinite"/>
  </rect>

  <!-- ================= LEFT PANEL (Photo + Info) ================= -->
  <g id="left-panel">
    <!-- Glass Background -->
    <rect x="20" y="20" width="430" height="570" rx="16" class="panel-bg" stroke="rgba(15,23,42,0.08)" stroke-width="1.5"/>
    <rect x="20" y="20" width="430" height="570" rx="16" fill="none" class="panel-stroke" stroke-width="2" opacity="0.6"/>

    <!-- Profile Photo -->
    <g>
      <!-- Glowing ring behind photo -->
      <circle cx="235" cy="160" r="100" fill="none" stroke="var(--ring)" stroke-width="4" opacity="0.8">
        <animateTransform attributeName="transform" type="rotate" from="0 235 160" to="360 235 160" dur="8s" repeatCount="indefinite"/>
      </circle>
      <circle cx="235" cy="160" r="100" fill="none" stroke="var(--ring)" stroke-width="2" opacity="0.4" filter="url(#glow)">
        <animateTransform attributeName="transform" type="rotate" from="360 235 160" to="0 235 160" dur="8s" repeatCount="indefinite"/>
      </circle>
      <!-- Pulsing ring -->
      <circle cx="235" cy="160" r="95" fill="none" stroke="var(--cursor-fill)" stroke-width="2" opacity="0.3">
        <animate attributeName="r" values="95; 105; 95" dur="2s" repeatCount="indefinite"/>
        <animate attributeName="opacity" values="0.3; 0; 0.3" dur="2s" repeatCount="indefinite"/>
      </circle>
      
      <!-- Photo image – placeholder, will be replaced by sed -->
      <image x="145" y="70" width="180" height="180" clip-path="url(#profileClip)" href="https://avatars.githubusercontent.com/akshad1007" preserveAspectRatio="xMidYMid slice"/>
    </g>

    <!-- Name and Title below photo -->
    <text x="235" y="300" text-anchor="middle" font-family="sans-serif" font-size="22" font-weight="bold" class="text-main">Akshad Viresh Makhana</text>
    <text x="235" y="335" text-anchor="middle" font-family="sans-serif" font-size="16" class="accent-text" font-weight="600">AI/ML Engineer</text>
    <text x="235" y="365" text-anchor="middle" font-family="monospace" font-size="14" class="text-muted">India</text>

    <!-- Small decorative line -->
    <line x1="80" y1="400" x2="390" y2="400" stroke="var(--cursor-fill)" stroke-width="1" opacity="0.3">
      <animate attributeName="opacity" values="0.3; 0.6; 0.3" dur="2s" repeatCount="indefinite"/>
    </line>

    <!-- "whoami" style text -->
    <text x="235" y="440" text-anchor="middle" font-family="monospace" font-size="14" class="text-muted">$ echo $passion</text>
    <text x="235" y="470" text-anchor="middle" font-family="sans-serif" font-size="18" class="accent-text" font-weight="600">Building AI that matters</text>
  </g>

  <!-- ================= RIGHT PANEL (Terminal) ================= -->
  <g id="right-panel">
    <rect x="470" y="20" width="690" height="570" rx="16" class="panel-bg" stroke="rgba(15,23,42,0.08)" stroke-width="1.5"/>
    
    <!-- Terminal Header -->
    <rect x="470" y="20" width="690" height="45" rx="16" fill="rgba(248,250,252,0.9)"/>
    <rect x="470" y="45" width="690" height="20" fill="rgba(248,250,252,0.9)"/>
    <circle cx="500" cy="42" r="6" fill="#FF5F56"/>
    <circle cx="522" cy="42" r="6" fill="#FFBD2E"/>
    <circle cx="544" cy="42" r="6" fill="#27C93F"/>
    <text x="815" y="48" fill="var(--text-muted)" font-family="monospace" font-size="13" text-anchor="middle">akshad@portfolio — bash — 80x24</text>

    <!-- Terminal Content -->
    <g transform="translate(490, 80)">
      <!-- whoami -->
      <text x="0" y="0" fill="var(--text-muted)" font-family="monospace" font-size="15">$ whoami</text>
      <text x="80" y="25" fill="var(--text)" font-family="monospace" font-size="15">Akshad Viresh Makhana</text>

      <!-- role -->
      <text x="0" y="55" fill="var(--text-muted)" font-family="monospace" font-size="15">$ role</text>
      <text x="80" y="80" class="accent-text" font-family="monospace" font-size="15" font-weight="bold"
            stroke="var(--accent)" stroke-width="0.5" stroke-dasharray="300" stroke-dashoffset="300">
        AI/ML Engineer
        <animate attributeName="stroke-dashoffset" from="300" to="0" dur="2s" begin="2s" fill="freeze"/>
      </text>

      <!-- location -->
      <text x="0" y="115" fill="var(--text-muted)" font-family="monospace" font-size="15">$ location</text>
      <text x="80" y="140" fill="var(--text)" font-family="monospace" font-size="15"
            stroke="var(--text)" stroke-width="0.5" stroke-dasharray="100" stroke-dashoffset="100">
        India
        <animate attributeName="stroke-dashoffset" from="100" to="0" dur="1.5s" begin="4.5s" fill="freeze"/>
      </text>

      <!-- education -->
      <text x="0" y="175" fill="var(--text-muted)" font-family="monospace" font-size="15">$ education</text>
      <text x="80" y="200" fill="var(--text)" font-family="monospace" font-size="15"
            stroke="var(--text)" stroke-width="0.5" stroke-dasharray="400" stroke-dashoffset="400">
        Sanjivani University, Kopargaon (CGPA: 8.24)
        <animate attributeName="stroke-dashoffset" from="400" to="0" dur="2.5s" begin="6.5s" fill="freeze"/>
      </text>

      <!-- focus -->
      <text x="0" y="235" fill="var(--text-muted)" font-family="monospace" font-size="15">$ focus</text>
      <text x="80" y="260" fill="var(--text)" font-family="monospace" font-size="15"
            stroke="var(--text)" stroke-width="0.5" stroke-dasharray="200" stroke-dashoffset="200">
        AI &amp; Data Science
        <animate attributeName="stroke-dashoffset" from="200" to="0" dur="1.5s" begin="9.5s" fill="freeze"/>
      </text>

      <!-- portfolio -->
      <text x="0" y="295" fill="var(--text-muted)" font-family="monospace" font-size="15">$ portfolio</text>
      <text x="80" y="320" fill="var(--text)" font-family="monospace" font-size="15"
            stroke="var(--text)" stroke-width="0.5" stroke-dasharray="250" stroke-dashoffset="250">
        github.com/akshad-makhana
        <animate attributeName="stroke-dashoffset" from="250" to="0" dur="2s" begin="11.5s" fill="freeze"/>
      </text>

      <!-- skills -->
      <text x="0" y="360" fill="var(--text-muted)" font-family="monospace" font-size="15">$ skills</text>
      <g opacity="0" transform="translate(80, 375)">
        <animate attributeName="opacity" from="0" to="1" dur="0.5s" begin="14s" fill="freeze"/>
        
        <!-- Row 1 -->
        <g class="pill-group" transform="translate(0,0)">
          <rect class="pill-bg" x="0" y="0" width="85" height="30" rx="15" fill="var(--pill-bg)" stroke="var(--pill-stroke)"/>
          <text class="pill-text" x="42" y="19" fill="var(--text-muted)" font-family="sans-serif" font-size="12" text-anchor="middle" font-weight="600">Python</text>
        </g>
        <g class="pill-group" transform="translate(95,0)">
          <rect class="pill-bg" x="0" y="0" width="75" height="30" rx="15" fill="var(--pill-bg)" stroke="var(--pill-stroke)"/>
          <text class="pill-text" x="37" y="19" fill="var(--text-muted)" font-family="sans-serif" font-size="12" text-anchor="middle" font-weight="600">Java</text>
        </g>
        <g class="pill-group" transform="translate(180,0)">
          <rect class="pill-bg" x="0" y="0" width="70" height="30" rx="15" fill="var(--pill-bg)" stroke="var(--pill-stroke)"/>
          <text class="pill-text" x="35" y="19" fill="var(--text-muted)" font-family="sans-serif" font-size="12" text-anchor="middle" font-weight="600">C++</text>
        </g>
        <g class="pill-group" transform="translate(260,0)">
          <rect class="pill-bg" x="0" y="0" width="85" height="30" rx="15" fill="var(--pill-bg)" stroke="var(--pill-stroke)"/>
          <text class="pill-text" x="42" y="19" fill="var(--text-muted)" font-family="sans-serif" font-size="12" text-anchor="middle" font-weight="600">Pandas</text>
        </g>
        <g class="pill-group" transform="translate(355,0)">
          <rect class="pill-bg" x="0" y="0" width="80" height="30" rx="15" fill="var(--pill-bg)" stroke="var(--pill-stroke)"/>
          <text class="pill-text" x="40" y="19" fill="var(--text-muted)" font-family="sans-serif" font-size="12" text-anchor="middle" font-weight="600">NumPy</text>
        </g>

        <!-- Row 2 -->
        <g transform="translate(0,40)">
          <g class="pill-group">
            <rect class="pill-bg" x="0" y="0" width="100" height="30" rx="15" fill="var(--pill-bg)" stroke="var(--pill-stroke)"/>
            <text class="pill-text" x="50" y="19" fill="var(--text-muted)" font-family="sans-serif" font-size="12" text-anchor="middle" font-weight="600">Scikit-learn</text>
          </g>
          <g class="pill-group" transform="translate(110,0)">
            <rect class="pill-bg" x="0" y="0" width="105" height="30" rx="15" fill="var(--pill-bg)" stroke="var(--pill-stroke)"/>
            <text class="pill-text" x="52" y="19" fill="var(--text-muted)" font-family="sans-serif" font-size="12" text-anchor="middle" font-weight="600">TensorFlow</text>
          </g>
          <g class="pill-group" transform="translate(225,0)">
            <rect class="pill-bg" x="0" y="0" width="80" height="30" rx="15" fill="var(--pill-bg)" stroke="var(--pill-stroke)"/>
            <text class="pill-text" x="40" y="19" fill="var(--text-muted)" font-family="sans-serif" font-size="12" text-anchor="middle" font-weight="600">OpenCV</text>
          </g>
          <g class="pill-group" transform="translate(315,0)">
            <rect class="pill-bg" x="0" y="0" width="60" height="30" rx="15" fill="var(--pill-bg)" stroke="var(--pill-stroke)"/>
            <text class="pill-text" x="30" y="19" fill="var(--text-muted)" font-family="sans-serif" font-size="12" text-anchor="middle" font-weight="600">Git</text>
          </g>
        </g>
      </g>

      <!-- social -->
      <text x="0" y="495" fill="var(--text-muted)" font-family="monospace" font-size="15">$ social</text>
      <g opacity="0" transform="translate(80, 505)">
        <animate attributeName="opacity" from="0" to="1" dur="0.5s" begin="15.5s" fill="freeze"/>
        
        <a href="https://github.com/akshad-makhana" target="_blank">
          <g class="social-icon" transform="translate(0,0)">
            <svg width="28" height="28" viewBox="0 0 24 24" fill="var(--social-fill)">
              <path d="M12 0C5.37 0 0 5.37 0 12c0 5.31 3.435 9.795 8.205 11.385.6.105.825-.255.825-.57 0-.285-.015-1.23-.015-2.235-3.015.555-3.795-.735-4.035-1.41-.135-.345-.72-1.41-1.23-1.695-.42-.225-1.02-.78-.015-.795.945-.015 1.62.87 1.845 1.23 1.08 1.815 2.805 1.305 3.495.99.105-.78.42-1.305.765-1.605-2.67-.3-5.46-1.335-5.46-5.925 0-1.305.465-2.385 1.23-3.225-.12-.3-.54-1.53.12-3.15 0 0 1.005-.315 3.3 1.23.96-.27 1.98-.405 3-.405s2.04.135 3 .405c2.295-1.56 3.3-1.23 3.3-1.23.66 1.62.24 2.85.12 3.15.765.84 1.23 1.905 1.23 3.225 0 4.605-2.805 5.625-5.475 5.925.435.375.81 1.095.81 2.22 0 1.605-.015 2.895-.015 3.3 0 .315.225.69.825.57A12.02 12.02 0 0024 12c0-6.63-5.37-12-12-12z"/>
            </svg>
          </g>
        </a>
        <a href="https://linkedin.com/in/akshad-makhana" target="_blank">
          <g class="social-icon" transform="translate(45,0)">
            <svg width="28" height="28" viewBox="0 0 24 24" fill="var(--social-fill)">
              <path d="M20.447 20.452h-3.554v-5.569c0-1.328-.027-3.037-1.852-3.037-1.853 0-2.136 1.445-2.136 2.939v5.667H9.351V9h3.414v1.561h.046c.477-.9 1.637-1.85 3.37-1.85 3.601 0 4.267 2.37 4.267 5.455v6.286zM5.337 7.433a2.062 2.062 0 01-2.063-2.065 2.064 2.064 0 112.063 2.065zm1.782 13.019H3.555V9h3.564v11.452zM22.225 0H1.771C.792 0 0 .774 0 1.729v20.542C0 23.227.792 24 1.771 24h20.451C23.2 24 24 23.227 24 22.271V1.729C24 .774 23.2 0 22.222 0h.003z"/>
            </svg>
          </g>
        </a>
        <a href="https://twitter.com/akshad-makhana" target="_blank">
          <g class="social-icon" transform="translate(90,0)">
            <svg width="28" height="28" viewBox="0 0 24 24" fill="var(--social-fill)">
              <path d="M18.244 2.25h3.308l-7.227 8.26 8.502 11.24H16.17l-5.214-6.817L4.99 21.75H1.68l7.73-8.835L1.254 2.25H8.08l4.713 6.231zm-1.161 17.52h1.833L7.084 4.126H5.117z"/>
            </svg>
          </g>
        </a>
        <a href="mailto:akshadmakhana01@gmail.com" target="_blank">
          <g class="social-icon" transform="translate(135,0)">
            <svg width="28" height="28" viewBox="0 0 24 24" fill="var(--social-fill)">
              <path d="M22 6c0-1.1-.9-2-2-2H4c-1.1 0-2 .9-2 2v12c0 1.1.9 2 2 2h16c1.1 0 2-.9 2-2V6zm-2 0l-8 5-8-5h16zm0 12H4V8l8 5 8-5v10z"/>
            </svg>
          </g>
        </a>
      </g>
    </g>

    <!-- Terminal Cursor -->
    <rect x="570" y="395" width="8" height="16" class="cursor" filter="url(#glow)">
      <animate attributeName="opacity" values="1;0;1" dur="0.8s" repeatCount="indefinite"/>
    </rect>
  </g>
</svg>




